<?xml version="1.0" encoding="UTF-8" standalone="no"?>
<svg
        xmlns:dc="http://purl.org/dc/elements/1.1/"
        xmlns:cc="http://creativecommons.org/ns#"
        xmlns:rdf="http://www.w3.org/1999/02/22-rdf-syntax-ns#"
        xmlns="http://www.w3.org/2000/svg"
        viewBox="0 0 56.506668 37.799999"
        height="37.799999"
        width="56.506668"
        xml:space="preserve"
        id="svg2"
        version="1.1"><metadata
     id="metadata8"><rdf:RDF><cc:Work
         rdf:about=""><dc:format>image/svg+xml</dc:format><dc:type
           rdf:resource="http://purl.org/dc/dcmitype/StillImage" /></cc:Work></rdf:RDF></metadata><defs
     id="defs6" /><g
     transform="matrix(1.3333333,0,0,-1.3333333,0,37.8)"
     id="g10"><g
       transform="scale(0.1)"
       id="g12"><path
         id="path14"
         style="fill:#9abbe6;fill-opacity:1;fill-rule:nonzero;stroke:none"
         d="m 332.926,179.512 c 0,0 -56.594,5.097 -76.594,19.992 -20,14.891 -37.019,38.301 -37.019,38.301 0,0 -4.165,-2.649 -9.36,2.547 -2.129,2.128 -2.648,7.558 -2.648,7.558 0,0 -23.805,-24.277 8.605,-53.937 35.102,-32.118 88.508,-31.063 88.508,-31.063 0,0 16.582,13.192 20.84,13.192 4.258,0 7.668,3.41 7.668,3.41 z M 106.328,147.055 C 58.3594,105.488 0,74.2383 0,74.2383 1.93359,39.3945 47.9844,61.9922 59.0469,69.8633 78.9453,84.0039 164.934,173.746 164.934,173.746 c 0,0 3.636,-0.09 14.683,20.961 11.684,22.266 13.762,41.703 13.762,41.703 0,0 -18.152,-29.656 -87.051,-89.355 z M 387.152,86.6797 C 354.555,107.91 335.75,148.57 335.75,148.57 c -2.562,1.59 -4.516,-0.453 -10.062,0.883 -5.547,1.344 -13.497,11.227 -13.497,11.227 0,0 -5.113,-27.141 22.297,-63.0823 34.403,-45.1172 89.305,-27.9883 89.305,-27.9883 0,0 -9.316,0.0586 -36.641,17.0703" /><path
         id="path16"
         style="fill:#3871c1;fill-opacity:1;fill-rule:nonzero;stroke:none"
         d="m 91.4766,142.473 c 2.0156,1.632 4.0078,3.293 6,4.968 v 130.02 H 368.941 V 110.313 c 1.914,-2.09 3.914,-4.149 6.004,-6.153 V 283.457 H 91.4766 Z M 368.941,5.99609 H 97.4766 V 96.7891 c -2.043,-1.9922 -4.0391,-3.9375 -6,-5.8321 V 0 H 374.945 v 63.5078 c -1.988,0.5274 -3.992,1.2188 -6.004,1.9141 V 5.99609" /></g></g></svg>
